<svg width="33" height="44" viewBox="0 0 33 44" fill="none" xmlns="http://www.w3.org/2000/svg">
<path d="M11 42H6V44H11V42Z" fill="#F7FEFF"/>
<path d="M14 39H11V42H14V39Z" fill="#F7FEFF"/>
<path d="M8.5 39V36H6V42H11V39H8.5Z" fill="#181818"/>
<path d="M17 36H14V39H17V36Z" fill="#F7FEFF"/>
<path d="M14 36H11V39H14V36Z" fill="#181818"/>
<path d="M11 36H8V39H11V36Z" fill="#F5F38E"/>
<path d="M6 36H3V42H6V36Z" fill="#F7FEFF"/>
<path d="M19 33H17V36H19V33Z" fill="#F7FEFF"/>
<path d="M17 33H14V36H17V33Z" fill="#181818"/>
<path d="M11 31H8V36H11V31Z" fill="#181818"/>
<path d="M8 31H6V36H8V31Z" fill="#F7FEFF"/>
<path d="M22 31H19V33H22V31Z" fill="#F7FEFF"/>
<path d="M19 31H17V33H19V31Z" fill="#181818"/>
<path d="M17 31H14V33H17V31Z" fill="#CF8934"/>
<path d="M14 31H11V36H14V31Z" fill="#F5F38E"/>
<path d="M25 28H22V31H25V28Z" fill="#F7FEFF"/>
<path d="M22 28H19V31H22V28Z" fill="#181818"/>
<path d="M19 28H17V31H19V28Z" fill="#CF8934"/>
<path d="M12 25H3V28H9V31H12V25Z" fill="#F7FEFF"/>
<path d="M28 25H25V28H28V25Z" fill="#F7FEFF"/>
<path d="M25 25H22V28H25V25Z" fill="#181818"/>
<path d="M22 25H19V28H22V25Z" fill="#CF8934"/>
<path d="M17 25H14V31H17V25Z" fill="#F5F38E"/>
<path d="M30 22H28V25H30V22Z" fill="#F7FEFF"/>
<path d="M28 22H25V25H28V22Z" fill="#181818"/>
<path d="M25 22H22V25H25V22Z" fill="#CF8934"/>
<path d="M11.4 25.4V31H14.2V25.4H17V22.6H5.8V17H3V25.4H11.4Z" fill="#181818"/>
<path d="M28 20H25V22H28V20Z" fill="#CF8934"/>
<path d="M3 17H0V25H3V17Z" fill="#F7FEFF"/>
<path d="M33 14H30V22H33V14Z" fill="#F7FEFF"/>
<path d="M28 17H22V20H28V17Z" fill="#F5F38E"/>
<path d="M8 17H6V22H8V17Z" fill="#F5F38E"/>
<path d="M24.5 13.75V11H21.75V13.75H19V16.5H27.25V22H30V13.75H24.5Z" fill="#181818"/>
<path d="M19 14H17V17H19V14Z" fill="#CF8934"/>
<path d="M11 11H8V17H11V11Z" fill="#F5F38E"/>
<path d="M8 11H6V17H8V11Z" fill="#181818"/>
<path d="M6 11H3V17H6V11Z" fill="#F7FEFF"/>
<path d="M22 11H19V14H22V11Z" fill="#CF8934"/>
<path d="M27.5 11.5H25V14H30V9H27.5V11.5Z" fill="#F7FEFF"/>
<path d="M28 9H25V11H28V9Z" fill="#181818"/>
<path d="M25 9H22V11H25V9Z" fill="#CF8934"/>
<path d="M13.6667 11.5H10.8333V17H8V22.5H16.5V28H19.3333V25.25H22.1667V22.5H25V19.75H22.1667V17H16.5V14.25H19.3333V11.5H22.1667V8.75H25V6H13.6667V11.5Z" fill="#E2B436"/>
<path d="M14 6H11V11H14V6Z" fill="#F5F38E"/>
<path d="M11 6H8V11H11V6Z" fill="#181818"/>
<path d="M8 6H6V11H8V6Z" fill="#F7FEFF"/>
<path d="M33 3H30V9H33V3Z" fill="#F7FEFF"/>
<path d="M28 6H25V9H28V6Z" fill="#CF8934"/>
<path d="M11 3V6H27.2857V9H30V3H11Z" fill="#181818"/>
<path d="M11 3H8V6H11V3Z" fill="#F7FEFF"/>
<path d="M30 0H11V3H30V0Z" fill="#F7FEFF"/>
</svg>
