<svg width="45" height="45" viewBox="0 0 45 45" fill="none" xmlns="http://www.w3.org/2000/svg">
<path d="M30.3068 41.6128H27.2761V44.45H30.3068V41.6128Z" fill="#F7FEFF"/>
<path d="M33.3374 38.7756H30.3068V41.6129H33.3374V38.7756Z" fill="#F7FEFF"/>
<path d="M30.3068 38.7756H27.2761V41.6129H30.3068V38.7756Z" fill="#231E2B"/>
<path d="M27.2762 38.7756H25.2557V41.6129H27.2762V38.7756Z" fill="#F7FEFF"/>
<path d="M14.1432 38.7756H11.1125V41.6129H14.1432V38.7756Z" fill="#F7FEFF"/>
<path d="M36.3682 35.9382H33.3375V38.7755H36.3682V35.9382Z" fill="#F7FEFF"/>
<path d="M33.3374 35.9382H30.3068V38.7755H33.3374V35.9382Z" fill="#231E2B"/>
<path d="M30.3068 35.9382H27.2761V38.7755H30.3068V35.9382Z" fill="#E2B436"/>
<path d="M27.2762 35.9382H25.2557V38.7755H27.2762V35.9382Z" fill="#231E2B"/>
<path d="M25.2557 35.9382H22.225V38.7755H25.2557V35.9382Z" fill="#F7FEFF"/>
<path d="M16.1636 35.9382H14.1432V38.7755H16.1636V35.9382Z" fill="#F7FEFF"/>
<path d="M14.1432 35.9382H11.1125V38.7755H14.1432V35.9382Z" fill="#231E2B"/>
<path d="M11.1125 35.9382H8.08179V38.7755H11.1125V35.9382Z" fill="#F7FEFF"/>
<path d="M38.3886 33.1011H36.3682V35.9383H38.3886V33.1011Z" fill="#F7FEFF"/>
<path d="M36.3682 33.1011H33.3375V35.9383H36.3682V33.1011Z" fill="#231E2B"/>
<path d="M33.3374 33.1011H30.3068V35.9383H33.3374V33.1011Z" fill="#E2B436"/>
<path d="M30.3068 33.1011H27.2761V35.9383H30.3068V33.1011Z" fill="#F7FEFF"/>
<path d="M27.2762 33.1011H25.2557V35.9383H27.2762V33.1011Z" fill="#E2B436"/>
<path d="M25.2557 33.1011H22.225V35.9383H25.2557V33.1011Z" fill="#231E2B"/>
<path d="M19.1944 33.1011V24.5894H16.1637V35.9383H22.2251V33.1011H19.1944Z" fill="#F7FEFF"/>
<path d="M11.1125 24.5894H8.08179V35.9383H11.1125V24.5894Z" fill="#231E2B"/>
<path d="M33.3374 30.2639H30.3068V33.1012H33.3374V30.2639Z" fill="#231E2B"/>
<path d="M30.3068 30.2639H27.2761V33.1012H30.3068V30.2639Z" fill="#E2B436"/>
<path d="M27.2762 30.2639H25.2557V33.1012H27.2762V30.2639Z" fill="#231E2B"/>
<path d="M25.2557 30.2639H22.225V33.1012H25.2557V30.2639Z" fill="#F7FEFF"/>
<path d="M16.1636 24.5894H14.1432V35.9383H16.1636V24.5894Z" fill="#231E2B"/>
<path d="M14.1432 30.2639H11.1125V35.9384H14.1432V30.2639Z" fill="#E2B436"/>
<path d="M8.08183 24.5894H5.05115V35.9383H8.08183V24.5894Z" fill="#F7FEFF"/>
<path d="M30.3068 27.4265H27.2761V30.2637H30.3068V27.4265Z" fill="#231E2B"/>
<path d="M27.2762 27.4265H25.2557V30.2637H27.2762V27.4265Z" fill="#F7FEFF"/>
<path d="M38.3886 24.5894H36.3682V27.4266H38.3886V24.5894Z" fill="#F7FEFF"/>
<path d="M36.3682 24.5894H33.3375V27.4266H36.3682V24.5894Z" fill="#231E2B"/>
<path d="M33.3375 25.0623H30.3068V17.0234H27.2761V27.7419H30.3068V30.4215H33.3375V33.1011H36.3682V27.7419H33.3375V25.0623Z" fill="#F7FEFF"/>
<path d="M14.1432 24.5894H11.1125V30.2638H14.1432V24.5894Z" fill="#F5F38E"/>
<path d="M36.3682 22.6978H33.3375V24.5892H36.3682V22.6978Z" fill="#E2B436"/>
<path d="M22.225 22.6978H19.1943V24.5892H22.225V22.6978Z" fill="#F7FEFF"/>
<path d="M19.1944 22.6978H16.1637V24.5892H19.1944V22.6978Z" fill="#231E2B"/>
<path d="M16.1636 22.6978H14.1432V24.5892H16.1636V22.6978Z" fill="#E2B436"/>
<path d="M11.1125 22.6978H8.08179V24.5892H11.1125V22.6978Z" fill="#E2B436"/>
<path d="M8.08183 22.6978H5.05115V24.5892H8.08183V22.6978Z" fill="#231E2B"/>
<path d="M5.05109 22.6978H3.03064V24.5892H5.05109V22.6978Z" fill="#F7FEFF"/>
<path d="M38.3886 17.0234H36.3682V24.5894H38.3886V17.0234Z" fill="#231E2B"/>
<path d="M36.3682 19.8606H33.3375V22.6978H36.3682V19.8606Z" fill="#F5F38E"/>
<path d="M33.3374 17.0234H30.3068V24.5894H33.3374V17.0234Z" fill="#231E2B"/>
<path d="M25.2557 19.8606H22.225V22.6978H25.2557V19.8606Z" fill="#F7FEFF"/>
<path d="M22.225 19.8606H19.1943V22.6978H22.225V19.8606Z" fill="#231E2B"/>
<path d="M19.1944 19.8606H16.1637V22.6978H19.1944V19.8606Z" fill="#E2B436"/>
<path d="M16.1636 19.8606H14.1432V22.6978H16.1636V19.8606Z" fill="#F5F38E"/>
<path d="M14.1432 17.0234H11.1125V24.5894H14.1432V17.0234Z" fill="#F7FEFF"/>
<path d="M11.1125 19.8606H8.08179V22.6978H11.1125V19.8606Z" fill="#F5F38E"/>
<path d="M8.08183 19.8606H5.05115V22.6978H8.08183V19.8606Z" fill="#E2B436"/>
<path d="M5.05109 19.8606H3.03064V22.6978H5.05109V19.8606Z" fill="#231E2B"/>
<path d="M3.03068 19.8606H0V22.6978H3.03068V19.8606Z" fill="#F7FEFF"/>
<path d="M41.4194 17.0234H38.3887V24.5894H41.4194V17.0234Z" fill="#F7FEFF"/>
<path d="M22.225 17.0234H19.1943V19.8607H22.225V17.0234Z" fill="#F7FEFF"/>
<path d="M19.1944 17.0234H16.1637V19.8607H19.1944V17.0234Z" fill="#231E2B"/>
<path d="M16.1636 17.0234H14.1432V19.8607H16.1636V17.0234Z" fill="#E2B436"/>
<path d="M11.1125 17.0234H8.08179V19.8607H11.1125V17.0234Z" fill="#E2B436"/>
<path d="M8.08183 17.0234H5.05115V19.8607H8.08183V17.0234Z" fill="#231E2B"/>
<path d="M5.05109 17.0234H3.03064V19.8607H5.05109V17.0234Z" fill="#F7FEFF"/>
<path d="M44.45 14.1863H41.4193V17.0235H44.45V14.1863Z" fill="#F7FEFF"/>
<path d="M41.4194 14.1863H38.3887V17.0235H41.4194V14.1863Z" fill="#231E2B"/>
<path d="M38.3886 14.1863H36.3682V17.0235H38.3886V14.1863Z" fill="#E2B436"/>
<path d="M33.3374 14.1863H30.3068V17.0235H33.3374V14.1863Z" fill="#E2B436"/>
<path d="M30.3068 14.1863H27.2761V17.0235H30.3068V14.1863Z" fill="#231E2B"/>
<path d="M27.2762 14.1863H25.2557V17.0235H27.2762V14.1863Z" fill="#F7FEFF"/>
<path d="M14.1432 14.1863H11.1125V17.0235H14.1432V14.1863Z" fill="#F5F38E"/>
<path d="M8.08183 8.51172H5.05115V17.0234H8.08183V8.51172Z" fill="#F7FEFF"/>
<path d="M36.3682 11.3489H33.3375V19.8606H36.3682V11.3489Z" fill="#F7FEFF"/>
<path d="M30.3068 5.67456H27.2761V14.1863H30.3068V5.67456Z" fill="#F7FEFF"/>
<path d="M19.1944 8.51172H16.1637V17.0234H19.1944V8.51172Z" fill="#F7FEFF"/>
<path d="M14.1432 8.51172H11.1125V14.1862H14.1432V8.51172Z" fill="#E2B436"/>
<path d="M11.1125 8.51172H8.08179V17.0234H11.1125V8.51172Z" fill="#231E2B"/>
<path d="M41.4194 5.67456H38.3887V14.1863H41.4194V5.67456Z" fill="#F7FEFF"/>
<path d="M36.3682 8.51172H33.3375V11.349H36.3682V8.51172Z" fill="#F5F38E"/>
<path d="M33.3374 5.67456H30.3068V14.1863H33.3374V5.67456Z" fill="#231E2B"/>
<path d="M16.1636 8.51172H14.1432V17.0234H16.1636V8.51172Z" fill="#231E2B"/>
<path d="M38.3886 5.67456H36.3682V14.1863H38.3886V5.67456Z" fill="#231E2B"/>
<path d="M36.3682 5.67456H33.3375V8.51179H36.3682V5.67456Z" fill="#E2B436"/>
<path d="M16.1636 5.67456H14.1432V8.51179H16.1636V5.67456Z" fill="#F7FEFF"/>
<path d="M14.1432 5.67456H11.1125V8.51179H14.1432V5.67456Z" fill="#231E2B"/>
<path d="M11.1125 5.67456H8.08179V8.51179H11.1125V5.67456Z" fill="#F7FEFF"/>
<path d="M38.3886 2.83716H36.3682V5.67439H38.3886V2.83716Z" fill="#F7FEFF"/>
<path d="M36.3682 2.83716H33.3375V5.67439H36.3682V2.83716Z" fill="#231E2B"/>
<path d="M33.3374 2.83716H30.3068V5.67439H33.3374V2.83716Z" fill="#F7FEFF"/>
<path d="M14.1432 2.83716H11.1125V5.67439H14.1432V2.83716Z" fill="#F7FEFF"/>
<path d="M36.3682 0H33.3375V2.83723H36.3682V0Z" fill="#F7FEFF"/>
</svg>
