<svg width="48" height="48" viewBox="0 0 48 48" fill="none" xmlns="http://www.w3.org/2000/svg">
<path d="M45.8174 32.7263H43.6356V37.0898H45.8174V32.7263Z" fill="white"/>
<path d="M43.6363 8.72705H41.4546V10.9088H43.6363V8.72705Z" fill="white"/>
<path d="M41.4538 39.2717H39.2721V41.4535H41.4538V39.2717Z" fill="white"/>
<path d="M41.4538 6.54541H39.2721V8.72717H41.4538V6.54541Z" fill="white"/>
<path d="M47.9984 15.2725H45.8167V32.7265H47.9984V15.2725Z" fill="white"/>
<path d="M39.2728 41.4539H37.091V43.6356H39.2728V41.4539Z" fill="white"/>
<path d="M39.2728 4.36353H37.091V6.54528H39.2728V4.36353Z" fill="white"/>
<path d="M15.2732 2.18213H10.9096V4.36389H15.2732V2.18213Z" fill="white"/>
<path d="M10.9104 4.36353H8.72859V6.54528H10.9104V4.36353Z" fill="white"/>
<path d="M37.0895 2.18213H32.726V4.36389H37.0895V2.18213Z" fill="white"/>
<path d="M4.36427 10.9089H2.18251V15.2725H4.36427V10.9089Z" fill="white"/>
<path d="M8.72638 39.2717H6.54462V41.4535H8.72638V39.2717Z" fill="white"/>
<path d="M32.7273 0H15.2732V2.18176H32.7273V0Z" fill="white"/>
<path d="M4.36427 32.7263H2.18251V37.0898H4.36427V32.7263Z" fill="white"/>
<path d="M43.6363 37.0898H41.4546V39.2716H43.6363V37.0898Z" fill="white"/>
<path d="M2.18176 15.2725H0V32.7265H2.18176V15.2725Z" fill="white"/>
<path d="M45.8174 10.9089H43.6356V15.2725H45.8174V10.9089Z" fill="white"/>
<path d="M15.2732 43.6353H10.9096V45.817H15.2732V43.6353Z" fill="white"/>
<path d="M10.9104 41.4539H8.72859V43.6356H10.9104V41.4539Z" fill="white"/>
<path d="M6.54532 8.72705H4.36356V10.9088H6.54532V8.72705Z" fill="white"/>
<path d="M32.7273 45.8171H15.2732V47.9989H32.7273V45.8171Z" fill="white"/>
<path d="M8.72638 6.54541H6.54462V8.72717H8.72638V6.54541Z" fill="white"/>
<path d="M37.0895 43.6353H32.726V45.817H37.0895V43.6353Z" fill="white"/>
<path d="M6.54532 37.0898H4.36356V39.2716H6.54532V37.0898Z" fill="white"/>
<path d="M8.00091 35.9985H6.00101V37.9984H8.00091V35.9985Z" fill="black"/>
<path d="M10.0008 37.9985H8.00092V39.9984H10.0008V37.9985Z" fill="black"/>
<path d="M12.0007 39.9983H10.0008V41.9982H12.0007V39.9983Z" fill="black"/>
<path d="M10.0008 7.99976H8.00092V9.99966H10.0008V7.99976Z" fill="black"/>
<path d="M6.00102 31.9988H4.00111V35.9986H6.00102V31.9988Z" fill="black"/>
<path d="M8.00091 9.99976H6.00101V11.9997H8.00091V9.99976Z" fill="black"/>
<path d="M16.0005 41.9983H12.0007V43.9982H16.0005V41.9983Z" fill="black"/>
<path d="M4.00111 15.9995H2.00121V31.9988H4.00111V15.9995Z" fill="black"/>
<path d="M31.9998 2.00024H16.0005V4.00015H31.9998V2.00024Z" fill="black"/>
<path d="M6.00102 11.9998H4.00111V15.9996H6.00102V11.9998Z" fill="black"/>
<path d="M31.9998 43.998H16.0005V45.998H31.9998V43.998Z" fill="black"/>
<path d="M35.9996 41.9983H31.9998V43.9982H35.9996V41.9983Z" fill="black"/>
<path d="M35.9996 4H31.9998V5.9999H35.9996V4Z" fill="black"/>
<path d="M12.0007 6H10.0008V7.99991H12.0007V6Z" fill="black"/>
<path d="M16.0005 4H12.0007V5.9999H16.0005V4Z" fill="black"/>
<path d="M37.9995 6H35.9996V7.99991H37.9995V6Z" fill="black"/>
<path d="M37.9995 39.9983H35.9996V41.9982H37.9995V39.9983Z" fill="black"/>
<path d="M39.9994 7.99976H37.9995V9.99966H39.9994V7.99976Z" fill="black"/>
<path d="M39.9994 37.9985H37.9995V39.9984H39.9994V37.9985Z" fill="black"/>
<path d="M43.9992 31.9988H41.9993V35.9986H43.9992V31.9988Z" fill="black"/>
<path d="M41.9993 9.99976H39.9994V11.9997H41.9993V9.99976Z" fill="black"/>
<path d="M43.9992 11.9998H41.9993V15.9996H43.9992V11.9998Z" fill="black"/>
<path d="M41.9993 35.9985H39.9994V37.9984H41.9993V35.9985Z" fill="black"/>
<path d="M45.9991 15.9995H43.9992V31.9988H45.9991V15.9995Z" fill="black"/>
<path d="M29.9999 37.9985H18.0004V39.9984H29.9999V37.9985Z" fill="black"/>
<path d="M43.9992 15.9996V31.9988H41.9993V35.9986H39.9994V37.9985H37.9995V39.9984H35.9996V41.9983H31.9998V43.9982H16.0005V41.9983H12.0007V39.9984H16.0005V37.9985H18.0004V39.9984H29.9999V37.9985H33.9997V35.9986H35.9996V33.9987H37.9995V29.9989H39.9994V17.9995H37.9995V15.9996H39.9994V11.9998H41.9993V15.9996H43.9992Z" fill="#CBA600"/>
<path d="M39.9994 17.9995H37.9995V29.9989H39.9994V17.9995Z" fill="black"/>
<path d="M39.9994 9.99972V15.9994H37.9995V13.9995H35.9996V11.9996H33.9997V9.99972H29.9999V7.99981H18.0005V9.99972H14.0006V11.9996H12.0007V13.9995H10.0008V17.9993H8.00092V29.9988H10.0008V33.9986H12.0007V35.9985H14.0006V37.9984H16.0005V39.9983H10.0008V37.9984H8.00092V35.9985H6.00102V31.9987H4.00111V15.9994H6.00102V11.9996H8.00092V9.99972H10.0008V7.99981H12.0007V5.99991H16.0005V4H31.9998V5.99991H35.9996V7.99981H37.9995V9.99972H39.9994Z" fill="#FFD100"/>
<path d="M37.9995 29.9988H35.9996V33.9986H37.9995V29.9988Z" fill="black"/>
<path d="M37.9995 13.9995H35.9996V17.9993H37.9995V13.9995Z" fill="black"/>
<path d="M35.9996 33.9985H33.9997V35.9984H35.9996V33.9985Z" fill="black"/>
<path d="M35.9996 11.9998H33.9997V13.9997H35.9996V11.9998Z" fill="black"/>
<path d="M33.9997 9.99976H29.9999V11.9997H33.9997V9.99976Z" fill="black"/>
<path d="M33.9997 35.9985H29.9999V37.9984H33.9997V35.9985Z" fill="black"/>
<path d="M29.9999 23.999H28V27.9988H29.9999V23.999Z" fill="black"/>
<path d="M29.9999 19.9993H28V21.9992H29.9999V19.9993Z" fill="black"/>
<path d="M29.9999 7.99976H18.0004V9.99966H29.9999V7.99976Z" fill="black"/>
<path d="M28 23.999V27.9988H24.0002V25.9989H26.0001V23.999H28Z" fill="#CB7419"/>
<path d="M20.0003 19.9993V21.9992H28V23.9991H20.0003V27.9989H28V29.9988H26.0001V31.9988H24.0002V29.9988H22.0003V31.9988H20.0003V29.9988H18.0004V17.9994H20.0003V15.9995H22.0003V17.9994H24.0002V15.9995H26.0001V17.9994H28V19.9993H20.0003Z" fill="black"/>
<path d="M28 19.9993H26.0001V21.9992H28V19.9993Z" fill="#CB7419"/>
<path d="M26.0001 19.9993H20.0004V21.9992H26.0001V19.9993Z" fill="#FFA33E"/>
<path d="M37.9995 17.9995V29.9989H35.9996V33.9987H33.9997V35.9986H29.9999V37.9985H18.0004V35.9986H14.0006V33.9987H18.0004V31.9988H22.0002V29.9989H24.0002V31.9988H26.0001V29.9989H28V27.999H29.9999V23.9992H28V21.9993H29.9999V19.9994H28V17.9995H29.9999V13.9997H31.9998V11.9998H33.9997V13.9997H35.9996V17.9995H37.9995Z" fill="#CB7419"/>
<path d="M26.0001 23.999V25.9989H24.0002V27.9988H20.0004V23.999H26.0001Z" fill="#FFA33E"/>
<path d="M18.0004 9.99976H14.0006V11.9997H18.0004V9.99976Z" fill="black"/>
<path d="M18.0004 35.9985H14.0006V37.9984H18.0004V35.9985Z" fill="black"/>
<path d="M14.0006 33.9985H12.0007V35.9984H14.0006V33.9985Z" fill="black"/>
<path d="M14.0006 11.9998H12.0007V13.9997H14.0006V11.9998Z" fill="black"/>
<path d="M12.0007 29.9988H10.0008V33.9986H12.0007V29.9988Z" fill="black"/>
<path d="M31.9998 11.9997V13.9996H29.9999V17.9994H26.0001V15.9995H24.0002V17.9994H22.0003V15.9995H20.0003V17.9994H18.0004V29.9988H20.0003V31.9987H18.0004V33.9986H12.0007V29.9988H10.0008V17.9994H12.0007V13.9996H14.0006V11.9997H18.0004V9.99976H29.9999V11.9997H31.9998Z" fill="#FFAA4D"/>
<path d="M12.0007 13.9995H10.0008V17.9993H12.0007V13.9995Z" fill="black"/>
<path d="M10.0008 17.9995H8.00092V29.9989H10.0008V17.9995Z" fill="black"/>
</svg>
