<svg width="53" height="53" viewBox="0 0 53 53" fill="none" xmlns="http://www.w3.org/2000/svg">
<path d="M36.0627 49.1758H16.3926V52.4541H36.0627V49.1758Z" fill="#F7FEFF"/>
<path d="M42.6192 45.897H36.0625V49.1753H42.6192V45.897Z" fill="#F7FEFF"/>
<path d="M36.0627 45.897H16.3926V49.1753H36.0627V45.897Z" fill="#231E2B"/>
<path d="M16.3927 45.897H9.83594V49.1753H16.3927V45.897Z" fill="#F7FEFF"/>
<path d="M45.8975 42.6187H42.6191V45.897H45.8975V42.6187Z" fill="#F7FEFF"/>
<path d="M42.6192 42.6187H36.0625V45.897H42.6192V42.6187Z" fill="#231E2B"/>
<path d="M16.3927 42.6187H9.83594V45.897H16.3927V42.6187Z" fill="#231E2B"/>
<path d="M9.835 42.6187H6.55664V45.897H9.835V42.6187Z" fill="#F7FEFF"/>
<path d="M49.1748 39.3403H45.8965V42.6187H49.1748V39.3403Z" fill="#F7FEFF"/>
<path d="M45.8975 39.3403H42.6191V42.6187H45.8975V39.3403Z" fill="#231E2B"/>
<path d="M32.7834 39.3404V42.6188H29.5051V36.0621H26.2267V32.7837H22.9484V39.3404H19.67V36.0621H16.3916V39.3404H13.1133V42.6188H16.3916V45.8971H36.0618V39.3404H32.7834Z" fill="#F5F38E"/>
<path d="M13.1143 39.3403H9.83594V42.6187H13.1143V39.3403Z" fill="#E2B436"/>
<path d="M9.835 39.3403H6.55664V42.6187H9.835V39.3403Z" fill="#231E2B"/>
<path d="M6.55571 39.3403H3.27734V42.6187H6.55571V39.3403Z" fill="#F7FEFF"/>
<path d="M45.8975 36.062H42.6191V39.3404H45.8975V36.062Z" fill="#C2751D"/>
<path d="M42.6182 36.062H39.3398V39.3404H42.6182V36.062Z" fill="#CF8934"/>
<path d="M39.341 32.7838H36.0627V36.0622H32.7843V32.7838H29.5059V29.5055H26.2276V22.9487H22.9492V32.7838H26.2276V36.0622H29.5059V42.6189H32.7843V39.3405H36.0627V42.6189H42.6194V39.3405H39.341V32.7838Z" fill="#E2B436"/>
<path d="M13.1143 36.062H9.83594V39.3404H13.1143V36.062Z" fill="#CF8934"/>
<path d="M9.835 36.062H6.55664V39.3404H9.835V36.062Z" fill="#C2751D"/>
<path d="M6.55571 26.2271H3.27734V39.3405H6.55571V26.2271Z" fill="#231E2B"/>
<path d="M49.1748 26.2271H45.8965V39.3405H49.1748V26.2271Z" fill="#231E2B"/>
<path d="M45.8975 32.7837H42.6191V36.0621H45.8975V32.7837Z" fill="#B0392E"/>
<path d="M36.0616 32.7837H32.7832V36.0621H36.0616V32.7837Z" fill="#CF8934"/>
<path d="M13.1143 32.7837V29.5054H9.83594V36.0621H13.1143V39.3405H16.3927V36.0621H19.671V39.3405H22.9494V32.7837H13.1143Z" fill="#E2B436"/>
<path d="M9.835 29.5054H6.55664V36.0621H9.835V29.5054Z" fill="#B0392E"/>
<path d="M3.27836 26.2271H0V39.3405H3.27836V26.2271Z" fill="#F7FEFF"/>
<path d="M42.6182 29.5054H39.3398V36.0621H42.6182V29.5054Z" fill="#C2751D"/>
<path d="M39.3409 29.5054H36.0625V32.7837H39.3409V29.5054Z" fill="#CF8934"/>
<path d="M36.0616 29.5054H32.7832V32.7837H36.0616V29.5054Z" fill="#C2751D"/>
<path d="M32.7842 29.5054H29.5059V32.7837H32.7842V29.5054Z" fill="#CF8934"/>
<path d="M22.9483 29.5054H19.6699V32.7837H22.9483V29.5054Z" fill="#F5F38E"/>
<path d="M19.6709 29.5054H16.3926V32.7837H19.6709V29.5054Z" fill="#CF8934"/>
<path d="M16.3916 29.5054H13.1133V32.7837H16.3916V29.5054Z" fill="#C2751D"/>
<path d="M52.4541 26.2271H49.1758V39.3405H52.4541V26.2271Z" fill="#F7FEFF"/>
<path d="M45.8975 26.2271H42.6191V32.7838H45.8975V26.2271Z" fill="#892727"/>
<path d="M39.3409 26.2271H36.0625V29.5054H39.3409V26.2271Z" fill="#E2B436"/>
<path d="M36.0616 22.9487H32.7832V29.5055H36.0616V22.9487Z" fill="#B0392E"/>
<path d="M32.7833 19.6704H29.5049V22.9488H26.2266V26.2271H29.5049V29.5055H32.7833V19.6704Z" fill="#C2751D"/>
<path d="M29.5049 26.2271H26.2266V29.5054H29.5049V26.2271Z" fill="#F5F38E"/>
<path d="M22.9483 26.2271H19.6699V29.5054H22.9483V26.2271Z" fill="#CF8934"/>
<path d="M19.6709 26.2271H16.3926V29.5054H19.6709V26.2271Z" fill="#C2751D"/>
<path d="M16.3916 26.2271H13.1133V29.5054H16.3916V26.2271Z" fill="#B0392E"/>
<path d="M13.1143 26.2271H9.83594V29.5054H13.1143V26.2271Z" fill="#C2751D"/>
<path d="M9.835 26.2271H6.55664V29.5054H9.835V26.2271Z" fill="#892727"/>
<path d="M42.6182 22.9487H39.3398V29.5055H42.6182V22.9487Z" fill="#B0392E"/>
<path d="M39.3409 22.9487H36.0625V26.2271H39.3409V22.9487Z" fill="#892727"/>
<path d="M22.9483 22.9487H19.6699V26.2271H22.9483V22.9487Z" fill="#C2751D"/>
<path d="M19.6709 22.9487H16.3926V26.2271H19.6709V22.9487Z" fill="#B0392E"/>
<path d="M13.1143 22.9487H9.83594V26.2271H13.1143V22.9487Z" fill="#B0392E"/>
<path d="M9.835 19.6704H6.55664V26.2271H9.835V19.6704Z" fill="#231E2B"/>
<path d="M6.55571 19.6704H3.27734V26.2271H6.55571V19.6704Z" fill="#F7FEFF"/>
<path d="M49.1748 16.3921H45.8965V26.2272H49.1748V16.3921Z" fill="#F7FEFF"/>
<path d="M42.6182 16.3921H39.3398V22.9488H42.6182V16.3921Z" fill="#892727"/>
<path d="M39.3409 16.3921H36.0625V22.9488H39.3409V16.3921Z" fill="#231E2B"/>
<path d="M36.0616 16.3921H32.7832V22.9488H36.0616V16.3921Z" fill="#892727"/>
<path d="M29.5049 19.6704H26.2266V22.9488H29.5049V19.6704Z" fill="#CF8934"/>
<path d="M22.9483 19.6704H19.6699V22.9488H22.9483V19.6704Z" fill="#B0392E"/>
<path d="M13.1143 19.6704H9.83594V22.9488H13.1143V19.6704Z" fill="#892727"/>
<path d="M45.8975 16.3921H42.6191V26.2272H45.8975V16.3921Z" fill="#231E2B"/>
<path d="M32.7842 16.3921H29.5059V19.6705H32.7842V16.3921Z" fill="#B0392E"/>
<path d="M29.5049 16.3921H26.2266V19.6705H29.5049V16.3921Z" fill="#E2B436"/>
<path d="M26.2276 16.3921H22.9492V22.9488H26.2276V16.3921Z" fill="#C2751D"/>
<path d="M22.9483 13.1133H19.6699V19.67H22.9483V13.1133Z" fill="#892727"/>
<path d="M16.3916 19.67H13.1133V26.2267H16.3916V22.9484H19.67V13.1133H16.3916V19.67Z" fill="#231E2B"/>
<path d="M13.1143 19.67H16.3927V13.1133H9.83594V16.3916H13.1143V19.67Z" fill="#F7FEFF"/>
<path d="M13.1143 16.3921H9.83594V19.6705H13.1143V16.3921Z" fill="#231E2B"/>
<path d="M9.835 16.3921H6.55664V19.6705H9.835V16.3921Z" fill="#F7FEFF"/>
<path d="M45.8975 13.1133H42.6191V16.3916H45.8975V13.1133Z" fill="#F7FEFF"/>
<path d="M42.6182 13.1133H39.3398V16.3916H42.6182V13.1133Z" fill="#231E2B"/>
<path d="M39.3409 13.1133H36.0625V16.3916H39.3409V13.1133Z" fill="#F7FEFF"/>
<path d="M36.0616 13.1133H32.7832V16.3916H36.0616V13.1133Z" fill="#231E2B"/>
<path d="M32.7842 13.1133H29.5059V16.3916H32.7842V13.1133Z" fill="#892727"/>
<path d="M29.5049 13.1133H26.2266V16.3916H29.5049V13.1133Z" fill="#C2751D"/>
<path d="M26.2276 9.83545H22.9492V16.3922H26.2276V9.83545Z" fill="#B0392E"/>
<path d="M42.6182 9.83545H39.3398V13.1138H42.6182V9.83545Z" fill="#F7FEFF"/>
<path d="M36.0616 9.83545H32.7832V13.1138H36.0616V9.83545Z" fill="#F7FEFF"/>
<path d="M32.7842 9.83545H29.5059V13.1138H32.7842V9.83545Z" fill="#231E2B"/>
<path d="M29.5049 9.83545H26.2266V13.1138H29.5049V9.83545Z" fill="#892727"/>
<path d="M22.9483 6.55664H19.6699V13.1134H22.9483V6.55664Z" fill="#231E2B"/>
<path d="M19.6709 6.55664H16.3926V13.1134H19.6709V6.55664Z" fill="#F7FEFF"/>
<path d="M32.7842 6.55664H29.5059V9.835H32.7842V6.55664Z" fill="#F7FEFF"/>
<path d="M29.5049 6.55664H26.2266V9.835H29.5049V6.55664Z" fill="#231E2B"/>
<path d="M26.2276 6.55664H22.9492V9.835H26.2276V6.55664Z" fill="#892727"/>
<path d="M29.5049 3.27832H26.2266V6.55668H29.5049V3.27832Z" fill="#F7FEFF"/>
<path d="M26.2276 3.27832H22.9492V6.55668H26.2276V3.27832Z" fill="#231E2B"/>
<path d="M22.9483 3.27832H19.6699V6.55668H22.9483V3.27832Z" fill="#F7FEFF"/>
<path d="M26.2276 0H22.9492V3.27836H26.2276V0Z" fill="#F7FEFF"/>
</svg>
