<svg width="24" height="24" viewBox="0 0 24 24" fill="none" xmlns="http://www.w3.org/2000/svg">
<path fill-rule="evenodd" clip-rule="evenodd" d="M12 0.949951C5.89744 0.949951 0.949997 5.8974 0.949997 11.9999C0.949997 18.1025 5.89744 23.0499 12 23.0499C18.1025 23.0499 23.05 18.1025 23.05 11.9999C23.05 5.8974 18.1025 0.949951 12 0.949951ZM8.45159 3.59208C9.49765 3.13763 10.7185 2.87239 12.0038 2.87239C17.037 2.87239 21.1182 6.94981 21.1256 11.9812L21.1247 11.9823V12.0038C21.1247 16.0831 18.4481 19.5373 14.7544 20.7046V17.522C14.7544 16.8615 14.6199 16.3061 14.3289 15.8804C14.661 15.8311 14.9756 15.7664 15.2833 15.686L15.3308 15.6736L15.3295 15.6684C15.7661 15.538 16.1537 15.3688 16.515 15.1597C16.9367 14.9231 17.2959 14.6236 17.5928 14.2694L17.5978 14.2635L17.5986 14.2625C17.9025 13.8929 18.142 13.4124 18.3238 12.8312C18.5082 12.2419 18.5981 11.5718 18.5981 10.824C18.5981 9.78151 18.2722 8.87715 17.6191 8.12333C17.9046 7.31023 17.843 6.41845 17.4627 5.46313L17.4205 5.35725L17.3121 5.32226C16.9897 5.21824 16.5759 5.29168 16.1114 5.46714C15.6412 5.64142 15.2384 5.83825 14.8571 6.0702L14.8151 6.09575L14.8164 6.09793L14.4864 6.30604C13.7494 6.10545 12.9152 5.99169 12.0557 5.99169C11.2428 5.99169 10.4543 6.09345 9.70073 6.28477C9.36627 5.77501 8.85124 5.50136 8.34302 5.36894C7.78286 5.22298 7.20649 5.24098 6.81623 5.31477L6.71231 5.33442L6.6561 5.42402C6.38507 5.85605 6.27349 6.39739 6.26915 6.90558C6.2654 7.34604 6.34199 7.78401 6.48486 8.132C5.83676 8.88408 5.51331 9.78552 5.51331 10.824C5.51331 11.5717 5.60326 12.2398 5.78775 12.825C5.96946 13.4013 6.20683 13.8807 6.50529 14.2536L6.5064 14.255C6.80986 14.6271 7.17642 14.936 7.59424 15.1665L7.6169 15.1772C7.97947 15.3871 8.39658 15.5653 8.83504 15.6888L8.87786 15.699C9.1493 15.7721 9.45648 15.8344 9.77686 15.8817C9.59313 16.1558 9.47112 16.4818 9.40605 16.8533C9.28668 16.9022 9.15466 16.9434 9.01687 16.973L9.00492 16.9751L8.9991 16.9763C8.81058 17.0141 8.58991 17.0359 8.36334 17.0359H8.31475C8.08725 17.0359 7.85213 16.9625 7.60589 16.7994C7.36537 16.6402 7.15193 16.4036 6.96965 16.0787L6.9669 16.0741C6.79008 15.7748 6.55795 15.526 6.28029 15.3349L6.27607 15.3317L6.27088 15.3282C6.00941 15.1508 5.76602 15.027 5.54854 14.9832L5.43794 14.9585C5.39942 14.9492 5.35787 14.9444 5.31738 14.9444C5.10859 14.9444 4.92684 15.0635 4.83764 15.2367L4.8362 15.2395L4.82243 15.2662C4.78159 15.3432 4.76205 15.4293 4.76205 15.5151C4.76205 15.7309 4.88835 15.9172 5.07133 16.0035L5.07765 16.0064C5.21707 16.0699 5.3744 16.2003 5.54512 16.4226L5.5484 16.4267C5.68897 16.6017 5.81399 16.8002 5.91423 17.0127L5.91491 17.0142L5.92081 17.0274L5.92168 17.0293L6.04529 17.3135C6.17 17.6777 6.39457 17.9845 6.68701 18.2068L6.68806 18.2076L6.68987 18.209C6.95975 18.42 7.2859 18.5715 7.64186 18.6382L7.64346 18.6385L7.65742 18.6406C7.93633 18.6949 8.25789 18.7285 8.58408 18.7345H8.58916C8.62471 18.7354 8.66825 18.7364 8.71248 18.7364C8.93303 18.7364 9.14928 18.7175 9.35952 18.6835C9.36042 18.941 9.3625 19.2277 9.36573 19.5431C9.36805 19.7563 9.36975 20.2678 9.37082 20.738C5.58472 19.5727 2.87917 16.1013 2.87917 11.9999C2.87917 8.24559 5.14503 5.0198 8.38569 3.61746L8.44124 3.59657L8.45159 3.59208Z" fill="white"/>
</svg>
