<svg width="374" height="1044" viewBox="0 0 374 1044" fill="none" xmlns="http://www.w3.org/2000/svg">
    <path d="M0.617195 1.55403L127.973 357.186M0.617252 175.109L98.4009 357.187M187.034 1.44215L187.115 357.187M0.617233 348.74L9.68444 357.186M0.617235 105.679L113.186 357.186M93.8066 1.44214L157.545 357.187M140.42 1.44215L172.33 357.187M233.648 1.44215L201.902 357.187M0.617261 314.011L39.2564 357.187M0.617266 290.859L54.0418 357.186M0.617189 711.771L24.4715 687.562M0.617188 695.998L9.68612 687.562M373.49 1.44215L246.26 357.187M373.691 261.748L305.404 357.186M47.1912 1.44214L142.758 357.187M373.691 782.91L305.406 687.562M0.61726 730.699L39.2564 687.563M0.617216 753.836L54.0435 687.563M373.691 696.068L364.549 687.563M0.617189 1042.89L127.973 687.562M0.617249 869.478L98.4009 687.563M373.691 820.132L290.618 687.563M373.691 753.961L320.191 687.563M373.691 711.858L349.763 687.562M373.691 730.804L334.977 687.562M0.617235 819.919L83.6155 687.563M0.617215 782.749L68.8289 687.563M47.0718 1043.45L142.76 687.562M0.61719 938.852L113.187 687.563M280.348 1043.45L216.689 687.562M93.7267 1043.45L157.545 687.562M140.382 1043.45L172.332 687.562M373.691 939.266L261.046 687.563M327.003 1043.45L231.475 687.562M280.263 1.44215L216.688 357.187M0.617237 332.953L24.4698 357.187M373.658 1043.45L246.261 687.562M373.691 869.771L275.834 687.562M187.037 1043.45L187.117 687.562M233.693 1043.45L201.904 687.562M373.691 290.721L320.191 357.186M373.691 348.665L364.548 357.186M373.691 332.866L349.763 357.186M373.691 313.899L334.976 357.186M326.877 1.44215L231.474 357.187M373.691 105.249L261.046 357.187M373.691 224.491L290.618 357.186M373.691 174.811L275.831 357.186M0.617216 261.915L68.8289 357.187M0.617293 224.713L83.6138 357.187M0.617257 907.074L373.691 907.074M0.617257 875.76L373.691 875.76M0.617257 944.482L373.691 944.482M0.617257 989.942H373.691M0.617257 54.5338L373.691 54.5339M0.617257 687.562L373.691 687.562M0.617257 357.186L373.691 357.186M0.617257 297.191L373.691 297.192M0.617257 284.869L373.691 284.869M0.617257 195.44L373.691 195.44M0.617257 694.092L373.691 694.092M0.617257 708.835L373.691 708.835M0.617257 701.163L373.691 701.163M0.617257 747.502L373.691 747.502M0.617257 736.405L373.691 736.405M0.617257 773.545L373.691 773.545M0.617257 726.351L373.691 726.351M0.617257 717.204L373.691 717.204M0.617257 788.965L373.691 788.965M0.617257 759.814L373.691 759.814M0.617257 806.405L373.691 806.405M0.617257 826.287L373.691 826.287M0.617257 849.162L373.691 849.162M0.617257 168.816L373.691 168.816M0.617257 218.335L373.691 218.335M0.617257 327.52L373.691 327.52M0.617257 335.888L373.691 335.888M0.617257 255.687L373.691 255.688M0.617257 271.124L373.691 271.124M0.617257 318.357L373.691 318.357M0.617257 308.294L373.691 308.294M0.617257 343.57L373.691 343.57M0.617257 350.645L373.691 350.645M0.617257 137.478L373.691 137.478M0.617257 100.038L373.691 100.038M0.617257 238.238L373.691 238.238" stroke="#AA0000" stroke-linecap="round" stroke-linejoin="round"/>
    <rect x="1" y="1" width="373" height="1042" fill="url(#paint0_linear_2001_222)"/>
    <defs>
        <linearGradient id="paint0_linear_2001_222" x1="187.5" y1="1" x2="187.5" y2="1043" gradientUnits="userSpaceOnUse">
            <stop stop-color="#181818" stop-opacity="0"/>
            <stop offset="0.225" stop-color="#181818"/>
            <stop offset="0.488129" stop-color="#181818"/>
            <stop offset="0.793872" stop-color="#181818"/>
            <stop offset="1" stop-color="#181818" stop-opacity="0"/>
        </linearGradient>
    </defs>
</svg>
