<svg width="375" height="732" viewBox="0 0 375 732" fill="none" xmlns="http://www.w3.org/2000/svg">
    <path d="M-98.0547 1.38091L97.4056 245.98M-98.0546 120.75L52.0198 245.981M188.05 1.30396L188.175 245.981M-98.0546 240.171L-84.1386 245.98M-98.0546 72.9971L74.7109 245.98M44.9686 1.30396L142.792 245.981M116.509 1.30396L165.483 245.981M259.591 1.30396L210.869 245.981M-98.0546 216.285L-38.7528 245.981M-98.0546 200.361L-16.0607 245.98M-98.0547 489.86L-61.444 473.209M-98.0547 479.011L-84.1361 473.209M474.216 1.30396L278.947 245.981M474.524 180.339L369.719 245.98M-26.5748 1.30396L120.097 245.981M474.524 538.788L369.722 473.21M-98.0546 502.878L-38.7528 473.21M-98.0546 518.791L-16.0581 473.21M474.524 479.06L460.494 473.21M-98.0547 717.598L97.4056 473.21M-98.0546 598.329L52.0198 473.21M474.524 564.389L347.027 473.21M474.524 518.878L392.414 473.21M474.524 489.919L437.8 473.209M474.524 502.951L415.108 473.21M-98.0546 564.243L29.3278 473.21M-98.0546 538.677L6.63392 473.21M-26.7581 717.984L120.1 473.209M-98.0547 646.043L74.7135 473.21M331.265 717.984L233.564 473.209M44.846 717.984L142.792 473.209M116.451 717.984L165.486 473.209M474.524 646.328L301.642 473.21M402.87 717.984L256.256 473.209M331.134 1.30396L233.561 245.981M-98.0546 229.313L-61.4466 245.981M474.474 717.984L278.95 473.209M474.524 598.531L324.336 473.21M188.056 717.984L188.178 473.209M259.66 717.984L210.872 473.209M474.524 200.267L392.414 245.98M474.524 240.12L460.491 245.981M474.524 229.253L437.8 245.98M474.524 216.208L415.105 245.981M402.675 1.30396L256.256 245.981M474.524 72.7012L301.642 245.981M474.524 154.714L347.027 245.98M474.524 120.545L324.333 245.98M-98.0546 180.454L6.63391 245.981M-98.0545 154.867L29.3252 245.981M-98.0546 624.187L474.525 624.187M-98.0546 602.65L474.525 602.65M-98.0546 649.916L474.525 649.916M-98.0546 681.183H474.525M-98.0546 37.8198L474.525 37.8198M-98.0546 473.209L474.525 473.209M-98.0546 245.981L474.525 245.981M-98.0546 204.717L474.525 204.717M-98.0546 196.241L474.525 196.242M-98.0546 134.734L474.525 134.734M-98.0546 477.701L474.525 477.701M-98.0546 487.84L474.525 487.84M-98.0546 482.564L474.525 482.564M-98.0546 514.435L474.525 514.435M-98.0546 506.803L474.525 506.803M-98.0546 532.347L474.525 532.347M-98.0546 499.888L474.525 499.888M-98.0546 493.596L474.525 493.596M-98.0546 542.953L474.525 542.953M-98.0546 522.903L474.525 522.903M-98.0546 554.948L474.525 554.948M-98.0546 568.623L474.525 568.623M-98.0546 584.356L474.525 584.356M-98.0546 116.422L474.525 116.422M-98.0546 150.48L474.525 150.48M-98.0546 225.577L474.525 225.577M-98.0546 231.332L474.525 231.332M-98.0546 176.171L474.525 176.171M-98.0546 186.788L474.525 186.788M-98.0546 219.274L474.525 219.274M-98.0546 212.353L474.525 212.353M-98.0546 236.616L474.525 236.616M-98.0546 241.482L474.525 241.482M-98.0546 94.8678L474.525 94.8679M-98.0546 69.1171L474.525 69.1172M-98.0546 164.169L474.525 164.169" stroke="#AA0000" stroke-linecap="round" stroke-linejoin="round"/>
    <rect x="-98" y="3" width="573" height="729" fill="url(#paint0_linear_2001_223)"/>
    <defs>
        <linearGradient id="paint0_linear_2001_223" x1="188.5" y1="3" x2="188.5" y2="732" gradientUnits="userSpaceOnUse">
            <stop stop-color="#181818" stop-opacity="0"/>
            <stop offset="0.225" stop-color="#181818"/>
            <stop offset="0.488129" stop-color="#181818"/>
            <stop offset="0.793872" stop-color="#181818"/>
            <stop offset="1" stop-color="#181818" stop-opacity="0"/>
        </linearGradient>
    </defs>
</svg>
