<svg width="19" height="16" viewBox="0 0 19 16" fill="none" xmlns="http://www.w3.org/2000/svg">
<path d="M0.771863 7.65064C2.61332 6.63006 4.66887 5.77822 6.58948 4.92205C9.89368 3.51972 13.211 2.14168 16.5618 0.858753C17.2137 0.640167 18.3851 0.426429 18.5 1.39853C18.4371 2.77458 18.1783 4.14257 18.0009 5.51056C17.5505 8.51891 17.0298 11.517 16.5221 14.5154C16.3472 15.5142 15.1038 16.0312 14.3081 15.392C12.3961 14.0925 10.4693 12.8055 8.58162 11.4759C7.96328 10.8437 8.53668 9.93576 9.08892 9.4843C10.6638 7.92267 12.3339 6.59589 13.8264 4.95355C14.2291 3.97533 13.0395 4.79974 12.6471 5.05237C10.4911 6.5473 8.38791 8.13349 6.11484 9.44733C4.95376 10.0904 3.60049 9.54086 2.43994 9.18202C1.39937 8.7485 -0.125472 8.31174 0.771758 7.65077L0.771863 7.65064Z" fill="white"/>
</svg>
